name D:\school\WTK\thesis\model\3dpredictsim\Results\Batchsim_tmt_linear_v2\Pog_s1_tmt_bCst_d00_k1000_ig24_pas.mot
datacolumns 128
datarows 4
range 1.62176856 1.65420393
endheader
time	pelvis_tilt	pelvis_list	pelvis_rotation	pelvis_tx	pelvis_ty	pelvis_tz	hip_flexion_l	hip_adduction_l	hip_rotation_l	hip_flexion_r	hip_adduction_r	hip_rotation_r	knee_angle_l	knee_angle_r	ankle_angle_l	ankle_angle_r	subtalar_angle_l	subtalar_angle_r	tmt_angle_l	tmt_angle_r	mtp_angle_l	mtp_angle_r	lumbar_extension	lumbar_bending	lumbar_rotation	arm_flex_l	arm_add_l	arm_rot_l	arm_flex_r	arm_add_r	arm_rot_r	elbow_flex_l	elbow_flex_r	pro_sup_l	pro_sup_r	glut_med1_l/activation	glut_med2_l/activation	glut_med3_l/activation	glut_min1_l/activation	glut_min2_l/activation	glut_min3_l/activation	semimem_l/activation	semiten_l/activation	bifemlh_l/activation	bifemsh_l/activation	sar_l/activation	add_long_l/activation	add_brev_l/activation	add_mag1_l/activation	add_mag2_l/activation	add_mag3_l/activation	tfl_l/activation	pect_l/activation	grac_l/activation	glut_max1_l/activation	glut_max2_l/activation	glut_max3_l/activation	iliacus_l/activation	psoas_l/activation	quad_fem_l/activation	gem_l/activation	peri_l/activation	rect_fem_l/activation	vas_med_l/activation	vas_int_l/activation	vas_lat_l/activation	med_gas_l/activation	lat_gas_l/activation	soleus_l/activation	tib_post_l/activation	flex_dig_l/activation	flex_hal_l/activation	tib_ant_l/activation	per_brev_l/activation	per_long_l/activation	per_tert_l/activation	ext_dig_l/activation	ext_hal_l/activation	ercspn_l/activation	intobl_l/activation	extobl_l/activation	glut_med1_r/activation	glut_med2_r/activation	glut_med3_r/activation	glut_min1_r/activation	glut_min2_r/activation	glut_min3_r/activation	semimem_r/activation	semiten_r/activation	bifemlh_r/activation	bifemsh_r/activation	sar_r/activation	add_long_r/activation	add_brev_r/activation	add_mag1_r/activation	add_mag2_r/activation	add_mag3_r/activation	tfl_r/activation	pect_r/activation	grac_r/activation	glut_max1_r/activation	glut_max2_r/activation	glut_max3_r/activation	iliacus_r/activation	psoas_r/activation	quad_fem_r/activation	gem_r/activation	peri_r/activation	rect_fem_r/activation	vas_med_r/activation	vas_int_r/activation	vas_lat_r/activation	med_gas_r/activation	lat_gas_r/activation	soleus_r/activation	tib_post_r/activation	flex_dig_r/activation	flex_hal_r/activation	tib_ant_r/activation	per_brev_r/activation	per_long_r/activation	per_tert_r/activation	ext_dig_r/activation	ext_hal_r/activation	ercspn_r/activation	intobl_r/activation	extobl_r/activation	
          1.62176856	         -2.90857569	         -0.99014162	         -5.01246546	          2.02721070	          0.87168494	          0.00241118	         26.09144012	         -0.23485873	         -2.59737102	        -17.95991449	          1.35589183	          6.43219840	         -7.27827358	         -6.63753818	          5.47154840	        -10.35940105	          2.94908081	          7.50936771	          0.03291016	          1.04742078	         -0.09890309	         28.45342775	          0.56880995	          3.05819244	          1.66686266	         -9.89811995	        -13.44994793	         10.53066508	          3.03193895	        -13.48445263	         11.07847643	         18.29180225	         28.35753389	         86.51662706	         86.51662706	          0.13464594	          0.05000226	          0.12458073	          0.05000154	          0.05000228	          0.05001154	          0.05901011	          0.05901009	          0.10415450	          0.05000102	          0.05001088	          0.07108653	          0.11510529	          0.07576856	          0.18065852	          0.16196460	          0.05000167	          0.05014509	          0.05535936	          0.05044960	          0.13587922	          0.17143731	          0.05000104	          0.05000072	          0.14144560	          0.05000338	          0.05003614	          0.05013384	          0.13070522	          0.14407392	          0.10429732	          0.05613806	          0.05000604	          0.05900979	          0.05000026	          0.05900935	          0.05900953	          0.53499395	          0.32033070	          0.18236262	          0.38532860	          0.52570148	          0.33881335	          0.05000016	          0.12735555	          0.12714144	          0.25548811	          0.08219346	          0.06829590	          0.23818255	          0.14292366	          0.08219503	          0.05000271	          0.05000052	          0.05000048	          0.05000056	          0.08618469	          0.12252775	          0.05203035	          0.05001655	          0.05001037	          0.05000240	          0.20870769	          0.09769540	          0.05001581	          0.05001102	          0.05000610	          0.05000584	          0.32579261	          0.61451328	          0.05724752	          0.05000934	          0.05000297	          0.25661772	          0.10568030	          0.15941934	          0.05005517	          0.17043250	          0.24911146	          0.20589408	          0.19504392	          0.18416871	          0.24691473	          0.05000005	          0.08128661	          0.15458446	          0.05000032	          0.05000010	          0.05000035	          0.05000004	          0.05000030	          0.05000023	
          1.63258035	         -2.88662675	         -1.03184154	         -5.15171934	          2.04434806	          0.87024191	          0.00225981	         25.57748101	         -0.06624653	         -2.36545329	        -17.70240912	          1.21250009	          6.19510325	         -7.39638304	         -8.90280048	          4.86652266	        -11.07250757	          2.46781016	          8.66673389	          0.05274725	          0.93534009	         -0.08715949	         29.07204307	          0.79995143	          2.85928245	          1.72344264	        -11.08473541	        -13.45107155	         10.33882364	          2.74740603	        -13.51850924	         11.34996698	         18.29731811	         29.22836124	         86.51662706	         86.51662706	          0.11408808	          0.06346274	          0.19224023	          0.05001440	          0.05000658	          0.05000213	          0.05000032	          0.05000058	          0.08825195	          0.05000020	          0.05000059	          0.06023507	          0.09753209	          0.24958719	          0.25246141	          0.16879070	          0.05000100	          0.05000383	          0.05000106	          0.05901110	          0.16998777	          0.20394986	          0.05000020	          0.05000035	          0.18893491	          0.06964913	          0.10021977	          0.06964334	          0.25396591	          0.27462578	          0.20638325	          0.05000001	          0.05000003	          0.05000000	          0.05000008	          0.05000058	          0.05000033	          0.62667989	          0.31999595	          0.17900620	          0.59070263	          0.57276879	          0.34871368	          0.05000006	          0.10791047	          0.10772906	          0.21647945	          0.06964394	          0.05786866	          0.20181632	          0.12110170	          0.06964534	          0.05000394	          0.05000038	          0.05000042	          0.05000033	          0.07302625	          0.18144611	          0.20238823	          0.11380318	          0.05002836	          0.05000404	          0.17684165	          0.09707431	          0.05000340	          0.05000750	          0.05000464	          0.05000526	          0.27604954	          0.52559968	          0.05138577	          0.05901162	          0.05900980	          0.21743648	          0.13510154	          0.13511126	          0.13384979	          0.14441029	          0.21107631	          0.17445749	          0.16526408	          0.15604974	          0.20921526	          0.05000005	          0.06887591	          0.13489665	          0.05000033	          0.05000021	          0.05000036	          0.05916065	          0.06964342	          0.05689219	
          1.64339214	         -2.85829936	         -1.05481936	         -5.26677784	          2.06167306	          0.86865008	          0.00211941	         24.97571884	          0.07247323	         -2.08579601	        -17.34450061	          1.06195220	          5.95318475	         -8.13117896	        -11.35478707	          4.15630754	        -11.72253508	          1.96969178	          9.79790975	         -0.04256179	          0.77833373	         -0.13681521	         29.15038533	          1.04314311	          2.62876957	          1.76982889	        -12.26112772	        -13.46421027	         10.21930634	          2.41042067	        -13.55738405	         11.58869556	         18.28238362	         30.08950056	         86.51662706	         86.51662706	          0.27552122	          0.23398873	          0.32281323	          0.05000104	          0.05000105	          0.05000147	          0.07350800	          0.05000095	          0.09203778	          0.05000049	          0.05000561	          0.06964309	          0.08264123	          0.21147966	          0.21391626	          0.18172456	          0.05000123	          0.06963706	          0.05015933	          0.05000142	          0.18026572	          0.19131120	          0.05000468	          0.05000114	          0.16008783	          0.05901534	          0.14651362	          0.05900998	          0.21518963	          0.23269508	          0.17487204	          0.05901002	          0.05901020	          0.05900987	          0.05000094	          0.05900995	          0.05900991	          0.53099628	          0.33623202	          0.17413344	          0.50051225	          0.55751352	          0.29547102	          0.05000007	          0.09143435	          0.09128062	          0.20836536	          0.05901053	          0.05000065	          0.17100275	          0.10261159	          0.05901176	          0.05000415	          0.05000074	          0.05000115	          0.05000020	          0.06187694	          0.18318633	          0.37676523	          0.11825492	          0.05902097	          0.09926604	          0.14984103	          0.08225833	          0.05000394	          0.05004663	          0.05006805	          0.05900283	          0.23390140	          0.47081786	          0.05726792	          0.05000340	          0.05000030	          0.18423754	          0.11447395	          0.11448217	          0.11341329	          0.12236124	          0.17884849	          0.14782072	          0.14003106	          0.13222383	          0.17727177	          0.05000396	          0.05836444	          0.14237740	          0.05000069	          0.16172779	          0.05000415	          0.05962636	          0.05901005	          0.05900990	
          1.65420393	         -2.82694602	         -1.06258935	         -5.35478337	          2.07895977	          0.86691832	          0.00197859	         24.27352657	          0.20722592	         -1.78582118	        -16.87845331	          0.91351125	          5.70871996	         -8.94290217	        -13.97826852	          3.70134928	        -12.20151899	          1.43334650	         10.85883720	         -0.01651392	          0.58001805	         -0.16312330	         28.42299668	          1.27772868	          2.37307360	          1.80602422	        -13.37953855	        -13.48944160	         10.19486276	          2.06040081	        -13.60211638	         11.81395483	         18.21983531	         30.92168932	         86.51662706	         86.51662706	          0.33303810	          0.36230445	          0.45593316	          0.22918974	          0.19606738	          0.32988464	          0.06248411	          0.08575972	          0.07798553	          0.06964360	          0.05000218	          0.05900999	          0.07002340	          0.17919050	          0.18127886	          0.19224971	          0.05000055	          0.05900630	          0.06969309	          0.24239254	          0.22785228	          0.21500201	          0.05000046	          0.05000038	          0.13564524	          0.05000588	          0.26052870	          0.05000018	          0.18233388	          0.19716656	          0.14817210	          0.05000019	          0.05000038	          0.05000005	          0.05000002	          0.05000036	          0.05000027	          0.67919124	          0.28489509	          0.14754622	          0.69488037	          0.62675660	          0.45323330	          0.05070017	          0.07747386	          0.07734359	          0.17655165	          0.05000067	          0.05000007	          0.14489739	          0.08694463	          0.05000181	          0.05003776	          0.05000109	          0.05000084	          0.05000098	          0.05900828	          0.19453358	          0.31924542	          0.10020076	          0.05001261	          0.08411072	          0.12696303	          0.06970370	          0.05000232	          0.05000122	          0.05000079	          0.05000078	          0.19818859	          0.41692606	          0.05000013	          0.05000056	          0.05000032	          0.15610754	          0.09699576	          0.09700272	          0.09609703	          0.10367872	          0.15154134	          0.12525097	          0.11865084	          0.11203588	          0.15020577	          0.07996799	          0.08487621	          0.12063887	          0.09701910	          0.21757558	          0.07743267	          0.09164994	          0.05000021	          0.05000016	
